<svg xmlns="http://www.w3.org/2000/svg" viewBox="0 0 200 200">
  <circle cx="100" cy="100" r="95" fill="#003DA5" stroke="#FFD700" stroke-width="5"/>
  <circle cx="100" cy="100" r="75" fill="none" stroke="#FFD700" stroke-width="2"/>
  <!-- Star of David -->
  <polygon points="100,30 130,80 160,80 140,110 150,160 100,135 50,160 60,110 40,80 70,80" fill="none" stroke="#FFD700" stroke-width="3"/>
  <polygon points="100,170 70,120 40,120 60,90 50,40 100,65 150,40 140,90 160,120 130,120" fill="none" stroke="#FFD700" stroke-width="3"/>
  <!-- Basketball lines -->
  <circle cx="100" cy="100" r="30" fill="#FFD700" stroke="#003DA5" stroke-width="2"/>
  <path d="M70,100 L130,100" stroke="#003DA5" stroke-width="2"/>
  <path d="M100,70 L100,130" stroke="#003DA5" stroke-width="2"/>
  <path d="M78,78 Q100,95 122,78" fill="none" stroke="#003DA5" stroke-width="1.5"/>
  <path d="M78,122 Q100,105 122,122" fill="none" stroke="#003DA5" stroke-width="1.5"/>
  <!-- Text -->
  <text x="100" y="188" text-anchor="middle" font-family="Arial" font-weight="bold" font-size="14" fill="#FFD700">MACCABI</text>
</svg>